<svg xmlns="http://www.w3.org/2000/svg" viewBox="0 0 1024 1024">
<g fill="none" stroke="black">
<path d="M 295,738 Z" />
<path d="M 652,732 Z" />
<path d="M 648,729 Z" />
<path d="M 579,729 Z" />
<path d="M 270,727 Z" />
<path d="M 484,724 Z" />
<path d="M 327,722 Z" />
<path d="M 414,721 Z" />
<path d="M 264,720 Z" />
<path d="M 513,716 Z" />
<path d="M 704,715 L 704,716 Z" />
<path d="M 506,715 Z" />
<path d="M 406,714 Z" />
<path d="M 404,714 Z" />
<path d="M 337,714 L 338,715 Z" />
<path d="M 515,712 Z" />
<path d="M 406,712 Z" />
<path d="M 417,711 Z" />
<path d="M 664,709 L 664,711 Z" />
<path d="M 337,709 Z" />
<path d="M 408,707 Z" />
<path d="M 446,705 Z" />
<path d="M 404,703 Z" />
<path d="M 337,701 Z" />
<path d="M 453,700 Z" />
<path d="M 401,696 Z" />
<path d="M 337,696 Z" />
<path d="M 704,695 Z" />
<path d="M 690,695 Z" />
<path d="M 444,695 Z" />
<path d="M 546,694 Z" />
<path d="M 440,694 Z" />
<path d="M 671,692 Z" />
<path d="M 401,691 L 401,692 Z" />
<path d="M 695,689 Z" />
<path d="M 619,686 Z" />
<path d="M 545,685 Z" />
<path d="M 489,685 Z" />
<path d="M 401,685 Z" />
<path d="M 695,683 Z" />
<path d="M 518,680 Z" />
<path d="M 606,674 Z" />
<path d="M 731,672 L 730,673 L 727,673 L 726,674 L 724,674 L 723,675 L 722,675 L 721,676 L 720,676 L 718,678 L 717,678 L 710,685 L 710,686 L 709,687 L 709,688 L 708,689 L 708,690 L 707,691 L 707,693 L 706,694 L 706,696 L 705,697 L 705,704 L 704,705 L 704,708 L 705,709 L 705,713 L 706,714 L 706,717 L 707,718 L 707,719 L 708,720 L 708,721 L 707,722 L 708,721 L 709,722 L 709,723 L 711,725 L 711,726 L 715,730 L 714,731 L 715,730 L 716,730 L 718,732 L 717,733 L 718,732 L 719,732 L 720,733 L 721,733 L 722,734 L 723,734 L 724,735 L 726,735 L 727,736 L 734,736 L 735,737 L 736,736 L 743,736 L 744,735 L 746,735 L 747,734 L 748,734 L 749,733 L 750,733 L 751,732 L 752,732 L 756,728 L 757,728 L 757,727 L 761,723 L 761,722 L 762,721 L 762,720 L 763,719 L 763,718 L 764,717 L 764,715 L 765,714 L 765,709 L 766,708 L 766,699 L 765,698 L 765,694 L 764,693 L 764,691 L 763,690 L 763,689 L 762,688 L 762,686 L 759,683 L 759,682 L 757,680 L 756,680 L 752,676 L 751,676 L 750,675 L 749,675 L 748,674 L 746,674 L 745,673 L 741,673 L 740,672 Z" />
<path d="M 670,672 L 669,673 L 667,673 L 666,674 L 665,674 L 664,675 L 662,675 L 656,681 L 656,682 L 655,683 L 655,684 L 654,685 L 654,695 L 655,696 L 655,698 L 657,700 L 657,701 L 661,705 L 662,705 L 663,706 L 664,706 L 665,707 L 666,707 L 667,708 L 666,709 L 667,709 L 668,708 L 669,708 L 670,709 L 671,709 L 672,710 L 673,710 L 674,711 L 675,711 L 676,712 L 677,712 L 678,713 L 679,713 L 680,714 L 681,714 L 684,717 L 684,725 L 680,729 L 679,729 L 678,730 L 670,730 L 669,729 L 667,729 L 665,727 L 664,727 L 663,726 L 663,725 L 660,722 L 660,721 L 661,720 L 660,721 L 659,720 L 659,719 L 658,718 L 658,717 L 656,715 L 655,716 L 654,716 L 654,718 L 653,719 L 654,720 L 654,733 L 655,733 L 656,734 L 659,734 L 660,735 L 663,735 L 664,736 L 680,736 L 681,735 L 683,735 L 684,734 L 686,734 L 687,733 L 688,733 L 691,730 L 692,730 L 692,729 L 694,727 L 694,726 L 695,725 L 695,724 L 696,723 L 696,720 L 697,719 L 697,716 L 696,715 L 696,711 L 695,710 L 695,709 L 693,707 L 693,706 L 692,706 L 688,702 L 687,702 L 686,701 L 685,701 L 684,700 L 683,700 L 682,699 L 681,699 L 680,698 L 678,698 L 677,697 L 676,697 L 675,696 L 673,696 L 672,695 L 671,695 L 668,692 L 667,692 L 666,691 L 666,690 L 665,689 L 665,683 L 668,680 L 669,680 L 670,679 L 671,679 L 672,678 L 676,678 L 677,679 L 679,679 L 680,680 L 681,680 L 685,684 L 684,685 L 685,684 L 686,685 L 686,686 L 688,688 L 688,689 L 689,690 L 689,692 L 690,692 L 691,693 L 692,692 L 693,692 L 694,691 L 695,691 L 694,691 L 693,690 L 693,676 L 692,675 L 689,675 L 688,674 L 686,674 L 685,673 L 686,672 L 685,673 L 682,673 L 681,672 Z" />
<path d="M 594,672 L 593,673 L 591,673 L 590,674 L 588,674 L 587,675 L 584,675 L 583,676 L 580,676 L 579,677 L 576,677 L 575,678 L 575,679 L 576,680 L 576,681 L 581,681 L 584,684 L 584,688 L 585,689 L 585,723 L 584,724 L 584,728 L 582,730 L 581,730 L 580,731 L 579,731 L 578,732 L 577,732 L 576,731 L 577,732 L 576,733 L 576,734 L 577,735 L 607,735 L 607,732 L 606,732 L 605,731 L 603,731 L 602,730 L 601,730 L 600,729 L 600,728 L 599,727 L 599,688 L 601,686 L 602,687 L 602,686 L 604,684 L 605,685 L 605,686 L 605,685 L 604,684 L 605,683 L 606,683 L 607,682 L 616,682 L 617,683 L 618,683 L 619,684 L 620,684 L 621,685 L 621,686 L 622,687 L 622,688 L 623,689 L 623,693 L 624,694 L 624,726 L 623,727 L 623,728 L 620,731 L 618,731 L 616,733 L 616,735 L 645,735 L 646,734 L 646,732 L 645,732 L 644,731 L 642,731 L 638,727 L 638,724 L 637,723 L 638,722 L 637,721 L 637,707 L 638,706 L 637,705 L 638,704 L 637,703 L 637,686 L 636,685 L 636,683 L 635,682 L 635,681 L 634,680 L 634,679 L 629,674 L 630,673 L 629,672 L 630,673 L 629,674 L 628,674 L 627,673 L 625,673 L 624,672 L 616,672 L 615,673 L 613,673 L 612,674 L 610,674 L 609,675 L 608,675 L 607,676 L 606,676 L 603,679 L 602,679 L 600,681 L 599,680 L 599,672 Z" />
<path d="M 536,672 L 535,673 L 531,673 L 530,674 L 529,674 L 528,675 L 527,675 L 525,677 L 524,677 L 521,680 L 520,680 L 520,681 L 519,682 L 519,683 L 518,684 L 518,685 L 517,686 L 517,689 L 518,690 L 518,692 L 520,694 L 525,694 L 528,691 L 528,690 L 529,689 L 529,685 L 530,684 L 530,683 L 531,682 L 531,681 L 532,680 L 533,680 L 534,679 L 535,679 L 536,678 L 540,678 L 541,679 L 542,679 L 543,680 L 544,680 L 546,682 L 546,683 L 547,684 L 547,685 L 548,686 L 548,698 L 547,699 L 545,699 L 544,700 L 541,700 L 540,701 L 538,701 L 537,702 L 534,702 L 533,703 L 531,703 L 530,704 L 529,704 L 528,705 L 527,705 L 526,706 L 525,706 L 524,707 L 523,707 L 521,709 L 520,709 L 519,710 L 519,711 L 518,712 L 517,712 L 517,713 L 516,714 L 516,715 L 515,716 L 515,717 L 514,718 L 514,725 L 515,726 L 515,728 L 517,730 L 517,731 L 520,734 L 521,734 L 522,735 L 523,735 L 524,736 L 535,736 L 536,735 L 537,735 L 538,734 L 540,734 L 542,732 L 543,732 L 544,731 L 545,731 L 546,730 L 547,730 L 548,729 L 549,730 L 549,735 L 549,734 L 550,733 L 551,734 L 551,735 L 552,735 L 553,736 L 563,736 L 564,735 L 566,735 L 567,734 L 568,734 L 570,732 L 571,732 L 572,731 L 573,731 L 573,728 L 574,727 L 575,727 L 573,727 L 572,726 L 570,726 L 569,727 L 565,727 L 564,726 L 565,725 L 564,724 L 563,725 L 562,724 L 562,712 L 561,711 L 561,706 L 562,705 L 561,704 L 561,701 L 562,700 L 562,699 L 561,698 L 562,697 L 562,696 L 561,695 L 562,694 L 562,691 L 561,690 L 562,689 L 561,688 L 561,684 L 560,683 L 560,682 L 559,681 L 559,680 L 558,679 L 558,678 L 557,678 L 555,676 L 554,676 L 553,675 L 552,675 L 551,674 L 550,674 L 549,673 L 550,672 L 549,673 L 545,673 L 544,672 Z" />
<path d="M 520,672 Z" />
<path d="M 480,672 L 479,673 L 477,673 L 476,674 L 474,674 L 473,675 L 471,675 L 470,676 L 469,676 L 467,678 L 466,678 L 462,682 L 462,683 L 459,686 L 459,687 L 458,688 L 458,689 L 457,690 L 457,692 L 456,693 L 456,695 L 455,696 L 455,702 L 454,703 L 454,705 L 455,706 L 455,713 L 456,714 L 456,716 L 457,717 L 457,719 L 458,720 L 458,722 L 460,724 L 460,725 L 459,726 L 460,725 L 465,730 L 464,731 L 465,732 L 466,731 L 467,732 L 468,732 L 469,733 L 468,734 L 467,734 L 468,734 L 469,733 L 470,733 L 471,734 L 470,735 L 471,734 L 473,734 L 474,735 L 476,735 L 477,736 L 482,736 L 483,737 L 484,737 L 485,736 L 490,736 L 491,735 L 494,735 L 495,734 L 496,734 L 498,732 L 499,732 L 504,727 L 504,726 L 506,724 L 506,723 L 509,720 L 508,720 L 507,719 L 507,718 L 506,717 L 505,718 L 504,718 L 504,719 L 499,724 L 498,724 L 497,725 L 496,725 L 495,726 L 492,726 L 491,727 L 487,727 L 486,726 L 482,726 L 481,725 L 480,725 L 476,721 L 475,721 L 474,720 L 474,719 L 472,717 L 472,716 L 471,715 L 471,714 L 470,713 L 470,711 L 469,710 L 469,704 L 468,703 L 468,698 L 469,697 L 469,693 L 470,692 L 470,689 L 471,688 L 471,687 L 472,686 L 472,685 L 477,680 L 478,680 L 479,679 L 480,679 L 481,678 L 484,678 L 485,679 L 487,679 L 489,681 L 488,682 L 489,683 L 490,682 L 492,684 L 492,685 L 493,686 L 493,687 L 494,688 L 494,690 L 495,691 L 495,692 L 497,694 L 501,694 L 502,693 L 503,693 L 505,691 L 505,690 L 506,689 L 506,686 L 507,685 L 506,684 L 506,682 L 499,675 L 498,675 L 497,674 L 495,674 L 494,673 L 491,673 L 490,672 Z" />
<path d="M 420,672 L 419,673 L 416,673 L 415,674 L 413,674 L 411,676 L 410,676 L 406,680 L 406,681 L 404,683 L 404,685 L 403,686 L 403,695 L 404,696 L 404,697 L 403,698 L 404,699 L 404,700 L 405,699 L 407,701 L 407,702 L 409,704 L 410,704 L 412,706 L 413,706 L 414,707 L 415,707 L 416,708 L 417,708 L 418,709 L 419,709 L 420,710 L 422,710 L 423,711 L 425,711 L 426,712 L 427,712 L 429,714 L 430,714 L 433,717 L 433,718 L 434,719 L 434,722 L 433,723 L 433,725 L 432,726 L 432,727 L 431,728 L 430,728 L 429,729 L 428,729 L 427,730 L 419,730 L 418,729 L 417,729 L 416,728 L 415,728 L 410,723 L 410,722 L 409,721 L 409,720 L 407,718 L 407,717 L 406,716 L 403,716 L 402,717 L 402,719 L 403,720 L 403,727 L 402,728 L 403,729 L 403,734 L 404,733 L 407,733 L 408,734 L 409,734 L 410,735 L 414,735 L 415,736 L 430,736 L 431,735 L 433,735 L 434,734 L 435,734 L 436,733 L 437,733 L 439,731 L 440,731 L 440,730 L 443,727 L 443,726 L 444,725 L 444,724 L 445,723 L 445,718 L 446,717 L 445,716 L 445,711 L 444,710 L 444,709 L 443,708 L 443,707 L 439,703 L 438,703 L 436,701 L 435,701 L 434,700 L 433,700 L 432,699 L 430,699 L 429,698 L 428,698 L 427,697 L 425,697 L 424,696 L 423,696 L 422,695 L 421,695 L 420,694 L 419,694 L 415,690 L 415,689 L 414,688 L 414,683 L 417,680 L 418,680 L 419,679 L 422,679 L 423,678 L 426,678 L 427,679 L 428,679 L 429,680 L 430,680 L 435,685 L 435,686 L 436,687 L 436,688 L 437,689 L 437,692 L 441,692 L 442,691 L 442,681 L 441,680 L 441,675 L 439,675 L 438,674 L 435,674 L 434,673 L 430,673 L 429,672 Z" />
<path d="M 363,672 L 362,673 L 359,673 L 358,674 L 357,674 L 356,675 L 355,675 L 354,676 L 353,676 L 351,678 L 350,678 L 347,681 L 347,682 L 344,685 L 344,687 L 343,688 L 343,689 L 342,690 L 342,691 L 341,692 L 341,694 L 340,695 L 340,698 L 339,699 L 339,711 L 340,712 L 340,716 L 339,717 L 339,718 L 339,717 L 340,716 L 341,717 L 341,719 L 342,720 L 342,721 L 344,723 L 344,724 L 345,725 L 345,726 L 349,730 L 348,731 L 349,730 L 350,731 L 351,731 L 353,733 L 354,733 L 355,734 L 356,734 L 357,735 L 360,735 L 361,736 L 366,736 L 367,737 L 368,736 L 374,736 L 375,735 L 378,735 L 379,734 L 380,734 L 381,733 L 382,733 L 384,731 L 385,731 L 389,727 L 389,726 L 391,724 L 391,723 L 392,722 L 392,721 L 393,720 L 392,720 L 390,718 L 391,717 L 384,724 L 383,724 L 382,725 L 380,725 L 379,726 L 374,726 L 373,727 L 371,727 L 370,726 L 367,726 L 366,725 L 365,725 L 364,724 L 363,724 L 362,723 L 361,723 L 359,721 L 359,720 L 356,717 L 356,716 L 355,715 L 355,713 L 354,712 L 354,709 L 353,708 L 353,703 L 354,702 L 392,702 L 393,701 L 393,698 L 392,697 L 392,690 L 391,689 L 391,687 L 390,686 L 390,685 L 389,684 L 389,683 L 388,682 L 388,681 L 382,675 L 381,675 L 380,674 L 378,674 L 377,673 L 378,672 L 377,673 L 373,673 L 372,672 Z" />
<path d="M 307,654 Z" />
<path d="M 305,653 Z" />
<path d="M 327,644 Z" />
<path d="M 327,642 Z" />
<path d="M 324,640 L 323,641 L 318,641 L 317,642 L 313,642 L 312,643 L 309,643 L 308,644 L 305,644 L 304,645 L 302,645 L 301,646 L 301,647 L 302,648 L 302,649 L 306,649 L 307,650 L 308,650 L 309,651 L 308,652 L 307,652 L 308,652 L 309,651 L 310,652 L 310,655 L 311,656 L 311,674 L 310,675 L 309,675 L 308,674 L 305,674 L 304,673 L 301,673 L 300,672 L 293,672 L 292,673 L 289,673 L 288,674 L 287,674 L 286,675 L 285,675 L 284,676 L 283,676 L 282,677 L 281,677 L 279,679 L 278,679 L 273,684 L 272,683 L 273,684 L 273,685 L 271,687 L 271,688 L 270,689 L 270,690 L 269,691 L 269,692 L 268,693 L 268,695 L 267,696 L 267,700 L 266,701 L 266,712 L 267,713 L 267,716 L 268,717 L 268,719 L 269,720 L 269,722 L 270,723 L 270,724 L 269,725 L 270,724 L 272,726 L 272,727 L 273,728 L 272,729 L 273,728 L 276,731 L 275,732 L 276,733 L 277,732 L 278,732 L 279,733 L 280,733 L 281,734 L 282,734 L 283,735 L 285,735 L 286,736 L 297,736 L 298,735 L 299,735 L 300,734 L 302,734 L 303,733 L 304,733 L 306,731 L 307,731 L 309,729 L 310,729 L 311,730 L 311,732 L 310,733 L 309,733 L 309,735 L 309,734 L 310,733 L 311,734 L 311,735 L 312,736 L 315,736 L 316,735 L 328,735 L 329,734 L 330,735 L 331,734 L 333,734 L 334,733 L 334,731 L 333,730 L 329,730 L 325,726 L 325,641 L 326,640 L 325,641 Z" />
<path d="M 721,614 Z" />
<path d="M 665,614 Z" />
<path d="M 521,613 Z" />
<path d="M 480,613 Z" />
<path d="M 568,611 Z" />
<path d="M 440,611 Z" />
<path d="M 385,611 L 385,612 L 384,613 L 385,612 Z" />
<path d="M 758,610 Z" />
<path d="M 412,610 Z" />
<path d="M 276,610 Z" />
<path d="M 728,607 Z" />
<path d="M 564,606 Z" />
<path d="M 560,605 Z" />
<path d="M 507,605 Z" />
<path d="M 562,603 Z" />
<path d="M 728,602 Z" />
<path d="M 345,602 Z" />
<path d="M 747,597 Z" />
<path d="M 717,593 Z" />
<path d="M 529,588 Z" />
<path d="M 575,583 Z" />
<path d="M 609,582 Z" />
<path d="M 603,582 Z" />
<path d="M 584,582 Z" />
<path d="M 489,580 Z" />
<path d="M 288,575 Z" />
<path d="M 489,572 L 489,574 Z" />
<path d="M 715,568 Z" />
<path d="M 613,567 Z" />
<path d="M 384,566 Z" />
<path d="M 753,564 Z" />
<path d="M 625,564 Z" />
<path d="M 485,564 Z" />
<path d="M 449,564 Z" />
<path d="M 560,562 Z" />
<path d="M 376,559 Z" />
<path d="M 720,558 Z" />
<path d="M 724,553 Z" />
<path d="M 621,553 Z" />
<path d="M 742,550 L 741,551 L 738,551 L 737,552 L 734,552 L 733,553 L 731,553 L 730,552 L 731,553 L 730,554 L 727,554 L 726,555 L 724,555 L 723,556 L 722,556 L 722,559 L 724,559 L 725,560 L 727,560 L 728,561 L 729,561 L 730,562 L 730,567 L 731,568 L 731,573 L 730,574 L 731,575 L 731,603 L 730,604 L 730,608 L 729,609 L 728,609 L 726,611 L 724,611 L 723,612 L 723,615 L 724,614 L 725,615 L 727,615 L 728,614 L 740,614 L 741,615 L 742,615 L 743,614 L 749,614 L 750,615 L 751,614 L 752,615 L 753,615 L 754,614 L 754,612 L 752,610 L 751,611 L 750,610 L 748,610 L 745,607 L 745,603 L 744,602 L 744,594 L 745,593 L 745,592 L 744,591 L 744,578 L 745,577 L 745,576 L 744,575 L 744,573 L 745,572 L 745,569 L 747,567 L 747,566 L 748,565 L 749,565 L 752,562 L 753,562 L 754,561 L 755,562 L 757,562 L 758,563 L 758,564 L 759,565 L 760,565 L 762,567 L 767,567 L 770,564 L 770,562 L 771,561 L 771,557 L 770,556 L 770,554 L 767,551 L 764,551 L 763,550 L 760,550 L 759,551 L 758,551 L 757,552 L 756,552 L 755,553 L 754,553 L 752,555 L 751,555 L 749,553 L 751,555 L 745,561 L 744,560 L 744,557 L 745,556 L 744,555 L 744,553 L 745,552 L 744,551 L 744,550 Z" />
<path d="M 681,550 L 680,551 L 676,551 L 675,552 L 674,552 L 673,553 L 671,553 L 669,555 L 668,555 L 666,557 L 665,557 L 662,560 L 662,561 L 659,564 L 659,565 L 658,566 L 658,567 L 657,568 L 657,569 L 656,570 L 656,572 L 655,573 L 655,576 L 654,577 L 654,591 L 655,592 L 655,595 L 656,596 L 656,598 L 657,599 L 657,600 L 658,601 L 658,602 L 660,604 L 660,605 L 665,610 L 664,611 L 665,612 L 664,611 L 665,610 L 666,610 L 668,612 L 667,613 L 668,612 L 669,612 L 670,613 L 672,613 L 673,614 L 675,614 L 676,615 L 681,615 L 682,616 L 689,616 L 690,615 L 694,615 L 695,614 L 697,614 L 698,613 L 699,613 L 700,612 L 701,612 L 703,610 L 704,610 L 710,604 L 710,603 L 711,602 L 711,601 L 713,599 L 713,597 L 714,596 L 714,594 L 715,593 L 715,590 L 716,589 L 716,577 L 715,576 L 715,572 L 714,571 L 714,570 L 713,569 L 713,567 L 712,566 L 712,565 L 710,563 L 710,562 L 704,556 L 703,556 L 701,554 L 700,554 L 699,553 L 698,553 L 697,552 L 695,552 L 694,551 L 690,551 L 689,550 Z" />
<path d="M 639,550 L 638,551 L 635,551 L 634,552 L 631,552 L 630,553 L 627,553 L 626,554 L 624,554 L 623,555 L 620,555 L 619,556 L 619,558 L 620,559 L 622,559 L 623,560 L 624,560 L 627,563 L 627,565 L 628,566 L 628,625 L 627,626 L 627,631 L 626,632 L 626,633 L 623,636 L 619,636 L 617,634 L 616,634 L 615,633 L 614,634 L 612,634 L 610,636 L 610,637 L 609,638 L 609,641 L 610,642 L 610,643 L 612,645 L 614,645 L 615,646 L 614,647 L 615,646 L 621,646 L 622,645 L 623,645 L 624,644 L 625,644 L 626,643 L 627,643 L 631,639 L 632,639 L 633,638 L 633,637 L 636,634 L 636,633 L 637,632 L 637,631 L 638,630 L 638,628 L 639,627 L 639,625 L 640,624 L 640,620 L 641,619 L 641,555 L 642,554 L 642,552 L 641,551 L 641,550 Z" />
<path d="M 586,550 L 585,551 L 580,551 L 579,552 L 577,552 L 576,553 L 575,553 L 574,554 L 573,554 L 569,558 L 568,558 L 568,559 L 567,560 L 566,560 L 566,561 L 565,562 L 565,563 L 563,565 L 563,566 L 562,567 L 562,568 L 561,569 L 561,571 L 560,572 L 560,575 L 559,576 L 559,590 L 560,591 L 560,593 L 561,594 L 561,597 L 562,598 L 562,599 L 561,600 L 562,599 L 563,600 L 563,601 L 564,602 L 564,603 L 567,606 L 567,607 L 568,607 L 572,611 L 573,611 L 574,612 L 575,612 L 576,613 L 577,613 L 578,614 L 580,614 L 581,615 L 595,615 L 596,614 L 599,614 L 600,615 L 599,614 L 600,613 L 601,613 L 602,612 L 603,613 L 602,612 L 603,611 L 604,611 L 611,604 L 611,603 L 612,602 L 612,601 L 613,600 L 613,599 L 614,598 L 613,599 L 611,597 L 610,598 L 609,598 L 604,603 L 603,603 L 602,604 L 601,604 L 600,605 L 595,605 L 594,606 L 593,606 L 592,605 L 591,606 L 590,606 L 589,605 L 587,605 L 586,604 L 585,604 L 583,602 L 582,602 L 577,597 L 577,596 L 576,595 L 576,594 L 575,593 L 575,592 L 574,591 L 574,587 L 573,586 L 573,582 L 574,581 L 575,581 L 576,580 L 612,580 L 612,579 L 613,578 L 614,579 L 613,578 L 613,576 L 612,575 L 612,569 L 611,568 L 611,566 L 610,565 L 610,564 L 609,563 L 609,562 L 608,561 L 608,560 L 606,558 L 606,557 L 605,557 L 602,554 L 601,554 L 600,553 L 599,553 L 598,552 L 596,552 L 595,551 L 590,551 L 589,550 L 588,551 L 587,551 Z" />
<path d="M 463,550 L 462,551 L 460,551 L 459,552 L 456,552 L 455,553 L 453,553 L 452,554 L 449,554 L 448,555 L 445,555 L 444,556 L 443,556 L 443,557 L 442,558 L 443,559 L 444,559 L 445,560 L 447,560 L 448,561 L 449,561 L 451,563 L 451,565 L 452,566 L 452,604 L 451,605 L 451,607 L 449,609 L 448,609 L 446,611 L 444,611 L 443,612 L 443,614 L 444,615 L 445,615 L 446,614 L 462,614 L 463,615 L 464,614 L 468,614 L 469,615 L 470,614 L 471,614 L 472,615 L 473,614 L 474,614 L 474,612 L 473,611 L 472,611 L 471,610 L 469,610 L 467,608 L 467,607 L 466,606 L 466,600 L 465,599 L 466,598 L 465,597 L 465,594 L 466,593 L 466,592 L 465,591 L 465,585 L 466,584 L 465,583 L 466,582 L 466,568 L 467,567 L 467,566 L 470,563 L 471,563 L 472,562 L 473,562 L 474,561 L 477,561 L 478,560 L 480,560 L 481,561 L 483,561 L 484,562 L 486,562 L 489,565 L 489,566 L 490,567 L 490,570 L 491,571 L 491,605 L 490,606 L 490,608 L 489,609 L 488,609 L 486,611 L 484,611 L 482,613 L 483,614 L 482,615 L 483,614 L 484,615 L 486,615 L 487,614 L 508,614 L 509,615 L 510,614 L 513,614 L 513,612 L 512,611 L 510,611 L 509,610 L 508,610 L 506,608 L 506,607 L 505,606 L 505,569 L 506,568 L 506,567 L 509,564 L 510,564 L 511,565 L 510,564 L 512,562 L 513,562 L 514,561 L 517,561 L 518,560 L 520,560 L 521,561 L 523,561 L 524,562 L 525,562 L 526,563 L 525,564 L 526,563 L 529,566 L 529,567 L 530,568 L 530,572 L 531,573 L 531,605 L 530,606 L 530,608 L 529,609 L 528,609 L 526,611 L 524,611 L 523,612 L 523,615 L 524,614 L 525,614 L 526,615 L 527,615 L 528,614 L 540,614 L 541,615 L 542,615 L 543,614 L 553,614 L 553,612 L 552,611 L 551,611 L 550,610 L 551,609 L 550,608 L 549,608 L 550,608 L 551,609 L 550,610 L 548,610 L 545,607 L 545,603 L 544,602 L 545,601 L 544,600 L 544,564 L 543,563 L 543,561 L 542,560 L 542,559 L 541,558 L 541,557 L 538,554 L 539,553 L 538,554 L 537,553 L 536,553 L 535,552 L 533,552 L 532,551 L 529,551 L 528,550 L 525,550 L 524,551 L 520,551 L 519,552 L 518,552 L 517,553 L 516,553 L 515,554 L 514,554 L 512,556 L 511,556 L 507,560 L 503,560 L 502,559 L 502,558 L 497,553 L 496,553 L 494,551 L 490,551 L 489,550 L 485,550 L 484,551 L 480,551 L 479,552 L 478,552 L 477,553 L 476,553 L 475,554 L 474,554 L 472,556 L 471,556 L 469,558 L 468,558 L 467,559 L 466,558 L 466,555 L 465,554 L 466,553 L 466,552 L 465,551 L 465,550 Z" />
<path d="M 358,550 L 357,551 L 355,551 L 354,552 L 350,552 L 349,553 L 346,553 L 345,554 L 344,554 L 343,555 L 340,555 L 339,556 L 338,556 L 337,557 L 337,559 L 340,559 L 341,560 L 343,560 L 346,563 L 346,568 L 347,569 L 347,583 L 346,584 L 346,585 L 347,586 L 347,589 L 346,590 L 347,591 L 346,592 L 346,596 L 347,597 L 347,603 L 348,604 L 348,606 L 349,607 L 349,608 L 354,613 L 355,613 L 356,614 L 357,614 L 358,615 L 371,615 L 372,614 L 374,614 L 375,613 L 377,613 L 379,611 L 380,611 L 383,608 L 384,608 L 385,607 L 386,607 L 387,608 L 387,615 L 395,615 L 396,614 L 404,614 L 405,613 L 407,613 L 408,614 L 410,612 L 410,610 L 409,609 L 406,609 L 405,608 L 404,608 L 401,605 L 401,592 L 400,591 L 400,562 L 401,561 L 401,560 L 400,559 L 400,554 L 401,553 L 401,552 L 400,551 L 400,550 L 398,550 L 397,551 L 394,551 L 393,552 L 390,552 L 389,553 L 385,553 L 384,554 L 383,554 L 382,555 L 380,555 L 379,556 L 378,556 L 378,558 L 379,559 L 381,559 L 382,560 L 383,560 L 384,561 L 385,561 L 386,562 L 386,592 L 387,593 L 387,595 L 386,596 L 386,600 L 385,601 L 384,600 L 385,601 L 383,603 L 382,603 L 381,604 L 380,604 L 379,605 L 377,605 L 376,606 L 370,606 L 369,605 L 367,605 L 365,603 L 366,602 L 365,603 L 364,603 L 363,602 L 363,601 L 362,600 L 362,599 L 361,598 L 361,595 L 360,594 L 361,593 L 360,592 L 360,552 L 361,551 L 360,550 Z" />
<path d="M 695,549 Z" />
<path d="M 593,549 Z" />
<path d="M 288,534 Z" />
<path d="M 306,531 Z" />
<path d="M 340,523 Z" />
<path d="M 631,522 L 630,523 L 629,523 L 627,525 L 627,526 L 625,528 L 624,527 L 625,528 L 625,534 L 626,535 L 626,536 L 628,538 L 629,538 L 630,539 L 631,539 L 632,540 L 637,540 L 638,539 L 639,539 L 642,536 L 642,535 L 643,534 L 643,527 L 641,525 L 641,524 L 640,524 L 639,523 L 638,523 L 637,522 Z" />
<path d="M 295,522 L 294,523 L 257,523 L 256,524 L 257,525 L 257,543 L 256,544 L 258,544 L 259,545 L 260,545 L 262,543 L 262,541 L 263,540 L 263,539 L 264,538 L 264,537 L 266,535 L 266,534 L 269,531 L 270,531 L 271,530 L 272,530 L 273,529 L 277,529 L 278,528 L 289,528 L 290,529 L 290,547 L 289,548 L 290,549 L 290,601 L 289,602 L 289,605 L 285,609 L 284,609 L 283,610 L 279,610 L 278,611 L 278,613 L 277,614 L 278,615 L 279,615 L 280,614 L 309,614 L 310,615 L 311,614 L 312,614 L 313,615 L 314,614 L 317,614 L 317,612 L 316,611 L 315,611 L 314,610 L 311,610 L 310,609 L 309,609 L 305,605 L 305,601 L 304,600 L 304,530 L 305,529 L 311,529 L 312,528 L 315,528 L 316,529 L 321,529 L 323,531 L 324,530 L 330,536 L 330,537 L 332,539 L 332,540 L 333,541 L 333,543 L 334,544 L 334,545 L 335,546 L 336,545 L 338,545 L 338,544 L 339,543 L 339,536 L 338,535 L 338,523 L 337,522 L 336,522 L 335,523 L 312,523 L 311,522 L 310,523 L 296,523 Z" />
<path d="M 635,520 Z" />
<path d="M 501,511 Z" />
<path d="M 485,510 Z" />
<path d="M 538,509 Z" />
<path d="M 550,507 Z" />
<path d="M 448,503 Z" />
<path d="M 454,502 L 455,502 Z" />
<path d="M 451,502 Z" />
<path d="M 436,495 L 437,495 Z" />
<path d="M 418,485 Z" />
<path d="M 406,477 Z" />
<path d="M 394,467 Z" />
<path d="M 392,465 L 392,466 Z" />
<path d="M 385,459 Z" />
<path d="M 382,455 Z" />
<path d="M 380,454 Z" />
<path d="M 376,451 L 377,451 Z" />
<path d="M 360,424 Z" />
<path d="M 354,412 Z" />
<path d="M 352,411 Z" />
<path d="M 349,399 Z" />
<path d="M 340,362 Z" />
<path d="M 591,320 Z" />
<path d="M 589,320 L 589,321 Z" />
<path d="M 420,313 Z" />
<path d="M 684,303 Z" />
<path d="M 575,300 Z" />
<path d="M 340,300 Z" />
<path d="M 645,297 L 646,297 Z" />
<path d="M 374,296 Z" />
<path d="M 684,294 Z" />
<path d="M 681,291 Z" />
<path d="M 564,282 Z" />
<path d="M 464,273 Z" />
<path d="M 482,251 Z" />
<path d="M 542,248 Z" />
<path d="M 512,229 L 511,230 L 510,230 L 508,232 L 507,232 L 504,235 L 503,235 L 498,240 L 497,240 L 483,254 L 482,253 L 483,254 L 481,256 L 481,257 L 476,262 L 476,263 L 472,267 L 472,268 L 469,271 L 469,272 L 467,274 L 467,275 L 465,277 L 465,278 L 462,281 L 462,282 L 461,283 L 461,284 L 459,286 L 458,285 L 459,286 L 459,287 L 458,288 L 458,289 L 457,290 L 457,291 L 455,293 L 455,294 L 454,295 L 454,296 L 453,297 L 453,298 L 452,299 L 452,300 L 451,301 L 451,302 L 450,303 L 450,304 L 449,305 L 449,307 L 448,308 L 448,309 L 447,310 L 447,311 L 446,312 L 446,314 L 445,315 L 445,316 L 444,317 L 444,320 L 443,321 L 443,322 L 442,323 L 442,326 L 441,327 L 439,327 L 437,325 L 436,325 L 434,323 L 433,323 L 431,321 L 430,321 L 429,320 L 428,320 L 426,318 L 425,318 L 424,317 L 423,317 L 422,316 L 421,316 L 420,315 L 419,315 L 418,314 L 417,314 L 416,313 L 415,313 L 413,311 L 411,311 L 410,310 L 409,310 L 408,309 L 407,309 L 406,308 L 404,308 L 403,307 L 402,307 L 401,306 L 399,306 L 398,305 L 399,304 L 398,305 L 396,305 L 395,304 L 393,304 L 392,303 L 390,303 L 389,302 L 387,302 L 386,301 L 383,301 L 382,300 L 379,300 L 378,299 L 375,299 L 374,298 L 370,298 L 369,297 L 365,297 L 364,296 L 359,296 L 358,295 L 350,295 L 349,294 L 345,294 L 344,293 L 343,293 L 343,296 L 342,297 L 342,304 L 341,305 L 341,316 L 340,317 L 340,346 L 341,347 L 341,358 L 342,359 L 342,365 L 343,366 L 343,370 L 344,371 L 344,375 L 345,376 L 345,380 L 346,381 L 346,383 L 345,384 L 344,383 L 344,382 L 344,383 L 345,384 L 346,383 L 347,384 L 347,387 L 348,388 L 348,390 L 349,391 L 349,393 L 348,394 L 349,393 L 350,394 L 350,397 L 351,398 L 351,399 L 352,400 L 352,402 L 353,403 L 353,405 L 354,406 L 354,407 L 355,408 L 355,410 L 356,411 L 356,412 L 357,413 L 357,414 L 358,415 L 358,417 L 359,418 L 359,419 L 361,421 L 361,422 L 362,423 L 362,424 L 363,425 L 363,426 L 361,428 L 361,429 L 361,428 L 363,426 L 364,427 L 364,428 L 366,430 L 366,431 L 367,432 L 367,433 L 370,436 L 370,437 L 372,439 L 372,440 L 374,442 L 374,443 L 378,447 L 378,448 L 380,450 L 379,451 L 380,452 L 381,451 L 384,454 L 384,455 L 390,461 L 389,462 L 390,463 L 391,462 L 392,463 L 393,463 L 401,471 L 402,471 L 405,474 L 406,474 L 410,478 L 411,478 L 413,480 L 414,480 L 416,482 L 417,482 L 418,483 L 419,483 L 421,485 L 420,486 L 420,487 L 420,486 L 421,485 L 422,485 L 423,486 L 424,486 L 425,487 L 426,487 L 427,488 L 428,488 L 430,490 L 429,491 L 430,490 L 431,490 L 432,491 L 433,491 L 434,492 L 435,492 L 436,493 L 438,493 L 439,494 L 440,494 L 441,495 L 442,495 L 443,496 L 445,496 L 446,497 L 447,497 L 448,498 L 450,498 L 451,499 L 453,499 L 454,500 L 456,500 L 457,501 L 459,501 L 460,502 L 463,502 L 464,503 L 467,503 L 468,504 L 472,504 L 473,505 L 476,505 L 477,506 L 483,506 L 484,507 L 491,507 L 492,508 L 502,508 L 503,509 L 504,508 L 505,508 L 506,509 L 524,509 L 525,508 L 534,508 L 535,507 L 541,507 L 542,506 L 547,506 L 548,505 L 552,505 L 553,504 L 556,504 L 557,503 L 560,503 L 561,502 L 563,502 L 564,501 L 567,501 L 568,500 L 569,500 L 570,499 L 572,499 L 573,498 L 576,498 L 577,497 L 578,497 L 579,496 L 580,496 L 581,495 L 583,495 L 584,494 L 585,494 L 586,493 L 587,493 L 588,492 L 589,492 L 590,491 L 591,491 L 592,490 L 593,490 L 594,489 L 595,489 L 596,488 L 598,488 L 600,486 L 601,486 L 602,485 L 603,485 L 606,482 L 607,482 L 608,481 L 609,481 L 611,479 L 612,479 L 614,477 L 615,477 L 616,476 L 617,477 L 616,476 L 618,474 L 619,474 L 624,469 L 625,469 L 642,452 L 642,451 L 648,445 L 648,444 L 651,441 L 651,440 L 653,438 L 653,437 L 655,435 L 655,434 L 656,433 L 656,432 L 658,430 L 658,429 L 660,427 L 660,426 L 661,425 L 661,424 L 662,423 L 662,422 L 663,421 L 663,420 L 664,419 L 664,418 L 665,417 L 665,416 L 666,415 L 666,414 L 667,413 L 667,412 L 668,411 L 668,410 L 669,409 L 669,407 L 670,406 L 670,405 L 671,404 L 671,402 L 672,401 L 672,399 L 673,398 L 673,396 L 674,395 L 674,394 L 675,393 L 675,391 L 676,390 L 676,387 L 677,386 L 677,383 L 678,382 L 678,379 L 679,378 L 679,375 L 680,374 L 680,369 L 681,368 L 681,364 L 682,363 L 682,354 L 683,353 L 683,340 L 684,339 L 684,321 L 683,320 L 683,305 L 682,304 L 682,295 L 681,294 L 681,293 L 680,293 L 679,294 L 672,294 L 671,295 L 664,295 L 663,296 L 658,296 L 657,297 L 654,297 L 653,298 L 649,298 L 648,299 L 644,299 L 643,300 L 641,300 L 640,301 L 638,301 L 637,302 L 634,302 L 633,303 L 631,303 L 630,304 L 628,304 L 627,305 L 626,305 L 625,304 L 626,305 L 625,306 L 623,306 L 622,307 L 621,307 L 620,306 L 620,307 L 619,308 L 618,308 L 617,309 L 616,309 L 615,310 L 613,310 L 612,311 L 611,311 L 610,312 L 609,312 L 608,313 L 607,313 L 606,312 L 607,313 L 606,314 L 605,314 L 604,315 L 603,315 L 601,317 L 600,317 L 599,318 L 598,318 L 597,319 L 596,319 L 594,321 L 593,321 L 592,322 L 591,322 L 589,324 L 588,324 L 585,327 L 584,327 L 583,328 L 582,327 L 582,326 L 581,325 L 581,323 L 580,322 L 580,320 L 579,319 L 579,317 L 578,316 L 578,315 L 577,314 L 577,312 L 576,311 L 576,309 L 575,308 L 575,307 L 574,306 L 574,305 L 573,304 L 573,303 L 572,302 L 572,301 L 571,300 L 571,299 L 570,298 L 570,296 L 568,294 L 568,293 L 567,292 L 567,291 L 566,290 L 566,289 L 565,288 L 565,287 L 563,285 L 563,284 L 562,283 L 562,282 L 560,280 L 560,279 L 558,277 L 558,276 L 559,275 L 558,276 L 556,274 L 556,273 L 554,271 L 554,270 L 550,266 L 550,265 L 546,261 L 546,260 L 541,255 L 541,254 L 539,252 L 538,252 L 537,251 L 537,250 L 532,245 L 531,245 L 526,240 L 527,239 L 526,240 L 523,237 L 524,236 L 523,237 L 522,237 L 520,235 L 521,234 L 520,235 L 519,234 L 518,234 L 515,231 L 514,231 Z" />
</g>
</svg>